<?xml version="1.0" encoding="UTF-8"?>
<svg width="17px" height="16px" viewBox="0 0 17 16" version="1.1" xmlns="http://www.w3.org/2000/svg" xmlns:xlink="http://www.w3.org/1999/xlink">
    <!-- Generator: Sketch 46.2 (44496) - http://www.bohemiancoding.com/sketch -->
    <title>AddContact@1x</title>
    <desc>Created with Sketch.</desc>
    <defs></defs>
    <g id="Assets" stroke="none" stroke-width="1" fill="none" fill-rule="evenodd">
        <g id="Assets-Where-Section" transform="translate(-739.000000, -70.000000)">
            <g id="AddContact" transform="translate(739.500000, 70.000000)">
                <g id="noun_599615" transform="translate(2.000000, 2.000000)" stroke="#FC3446" stroke-width="0.5" fill="#FC3446" fill-rule="nonzero">
                    <path d="M2.26264045,0.134831461 C2.20021611,0.1415746 2.14210077,0.169887201 2.09831461,0.21488764 L0.433988764,1.92134831 C0.144833906,2.21784539 0,2.63799236 0,3.1011236 C0,4.61137348 1.17295591,6.8106 3.18117978,8.81882022 C5.18941011,10.8270404 7.38862598,12 8.8988764,12 C9.36202638,12 9.7821631,11.8551303 10.0786517,11.5660112 L11.7851124,9.90168539 C11.8363122,9.85102858 11.8651221,9.78199647 11.8651221,9.70997191 C11.8651221,9.63794735 11.8363122,9.56891524 11.7851124,9.51825843 L9.08848315,6.82162921 C8.9867395,6.72079397 8.82391628,6.71709344 8.71769663,6.81320225 L7.25140449,8.15730337 C6.5300369,7.73600899 5.87556526,7.25060899 5.31320225,6.68679775 C4.74417492,6.11631236 4.26999924,5.46013888 3.84691011,4.74438202 L5.18679775,3.28230337 C5.28290656,3.17608372 5.27920603,3.0132605 5.17837079,2.91151685 L2.48174157,0.21488764 C2.42462291,0.156363503 2.34403449,0.126917734 2.26264045,0.134831461 Z M2.29634831,0.787921348 L4.61797753,3.10955056 L3.30758427,4.53792135 C3.22750792,4.62377584 3.21217261,4.75157009 3.26966292,4.85393258 C3.73522247,5.67170562 4.28244364,6.41279326 4.93398876,7.06601124 C5.57737901,7.71105843 6.32217843,8.2664764 7.1502809,8.73033708 C7.25161091,8.78576772 7.37698925,8.77051901 7.46207865,8.69241573 L8.89044944,7.38202247 L11.2120787,9.70365169 L9.6994382,11.1783708 C9.51903816,11.3542854 9.25125101,11.4606742 8.8988764,11.4606742 C7.68632845,11.4606742 5.5000022,10.3792112 3.56039326,8.43960674 C1.62079106,6.50000225 0.539325843,4.31367371 0.539325843,3.1011236 C0.539325843,2.74875101 0.645708,2.48095011 0.821629213,2.3005618 L2.29634831,0.787921348 Z M8.5997191,1.20926966 C8.46078981,1.22453664 8.35654458,1.34341278 8.35955056,1.48314607 L8.35955056,3.1011236 L6.74157303,3.1011236 C6.7331507,3.1007284 6.72471447,3.1007284 6.71629213,3.1011236 C6.6199371,3.10562092 6.53330303,3.16118807 6.48903174,3.24688854 C6.44476045,3.33258902 6.44957968,3.43539925 6.50167365,3.51658261 C6.55376762,3.59776596 6.64521981,3.64498531 6.74157303,3.64044944 L8.35955056,3.64044944 L8.35955056,5.25842697 C8.35817555,5.35567687 8.40927017,5.44613371 8.49326936,5.49515993 C8.57726856,5.54418615 8.6811584,5.54418615 8.7651576,5.49515993 C8.8491568,5.44613371 8.90025142,5.35567687 8.8988764,5.25842697 L8.8988764,3.64044944 L10.5168539,3.64044944 C10.6141038,3.64182445 10.7045607,3.59072983 10.7535869,3.50673064 C10.8026131,3.42273144 10.8026131,3.3188416 10.7535869,3.2348424 C10.7045607,3.1508432 10.6141038,3.09974858 10.5168539,3.1011236 L8.8988764,3.1011236 L8.8988764,1.48314607 C8.90054934,1.40548418 8.86865382,1.33087236 8.81135826,1.27841869 C8.75406271,1.22596502 8.67693194,1.20076402 8.5997191,1.20926966 Z" id="Shape"></path>
                </g>
                <rect id="bounds" stroke="#979797" stroke-width="0.01" x="0.005" y="0.005" width="15.99" height="15.99"></rect>
            </g>
        </g>
    </g>
</svg>