<?xml version="1.0" encoding="UTF-8"?>
<svg width="16px" height="22px" viewBox="0 0 16 22" version="1.1" xmlns="http://www.w3.org/2000/svg" xmlns:xlink="http://www.w3.org/1999/xlink">
    <!-- Generator: Sketch 46.2 (44496) - http://www.bohemiancoding.com/sketch -->
    <title>ChooseOnMap@1x</title>
    <desc>Created with Sketch.</desc>
    <defs></defs>
    <g id="Assets" stroke="none" stroke-width="1" fill="none" fill-rule="evenodd">
        <g id="Assets-Where-Section" transform="translate(-493.000000, -65.000000)">
            <g id="ChooseOnMap" transform="translate(489.000000, 64.000000)">
                <g id="Shape-Pin" transform="translate(4.000000, 1.000000)">
                    <path d="M10.665,20.6634374 C10.665,21.0313799 9.47051997,21.3299999 7.99874997,21.3299999 C6.52697998,21.3299999 5.33249998,21.0313799 5.33249998,20.6634374 C5.33249998,20.2954949 6.52697998,19.9968749 7.99874997,19.9968749 C9.47051997,19.9968749 10.665,20.2954949 10.665,20.6634374" id="Fill-3" fill="#141515"></path>
                    <path d="M7.99874997,20.6634374 C7.99874997,20.6634374 11.7674943,15.5948962 13.33125,13.3725768 C14.8950056,11.1502575 15.3309374,9.77180622 15.3309374,7.99874997 C15.3309374,3.94871624 12.0487837,0.666562498 7.99874997,0.666562498 C3.94871624,0.666562498 0.666562498,3.94871624 0.666562498,7.99874997 C0.666562498,9.77180622 1.10249437,11.1502575 2.66624999,13.3725768 C4.23000561,15.5948962 7.99874997,20.6634374 7.99874997,20.6634374" id="Stroke-5" stroke="#141515" stroke-width="0.75" fill="#DFE6E8"></path>
                    <path d="M11.3315625,7.99874997 C11.3315625,9.83979559 9.83979559,11.3315625 7.99874997,11.3315625 C6.15770435,11.3315625 4.66593748,9.83979559 4.66593748,7.99874997 C4.66593748,6.15770435 6.15770435,4.66593748 7.99874997,4.66593748 C9.83979559,4.66593748 11.3315625,6.15770435 11.3315625,7.99874997 Z" id="Stroke-1" stroke="#303232" stroke-width="0.75" fill="#FFFFFF"></path>
                </g>
            </g>
        </g>
    </g>
</svg>