<?xml version="1.0" encoding="UTF-8"?>
<svg width="16px" height="16px" viewBox="0 0 16 16" version="1.1" xmlns="http://www.w3.org/2000/svg" xmlns:xlink="http://www.w3.org/1999/xlink">
    <!-- Generator: Sketch 46.2 (44496) - http://www.bohemiancoding.com/sketch -->
    <title>Contact@1x</title>
    <desc>Created with Sketch.</desc>
    <defs></defs>
    <g id="Assets" stroke="none" stroke-width="1" fill="none" fill-rule="evenodd">
        <g id="Assets-Where-Section" transform="translate(-840.000000, -70.000000)">
            <g id="Contact" transform="translate(840.000000, 70.000000)">
                <path d="M8.2896212,8.73448276 C10.1547477,8.73448276 11.6675726,7.22413793 11.6675726,5.36206897 C11.6675726,3.5 10.1547477,2 8.2896212,2 C6.42449465,2 4.91166978,3.51034483 4.91166978,5.36206897 C4.91166978,7.2137931 6.42449465,8.73448276 8.2896212,8.73448276 L8.2896212,8.73448276 Z M8.2896212,2.87931034 C9.65738067,2.87931034 10.7764566,3.99655172 10.7764566,5.36206897 C10.7764566,6.72758621 9.65738067,7.84482759 8.2896212,7.84482759 C6.92186173,7.84482759 5.8027858,6.72758621 5.8027858,5.36206897 C5.8027858,3.99655172 6.92186173,2.87931034 8.2896212,2.87931034 Z M2.44555801,14 L2.44555801,14 C2.19687447,14 2,13.8034483 2,13.5551724 C2,11.2172414 3.90657381,9.32413793 6.23798199,9.32413793 L10.3827077,9.32413793 C12.7244777,9.32413793 14.6206897,11.2275862 14.6206897,13.5551724 C14.6206897,13.8034483 14.4238152,14 14.1751316,14 L2.44555801,14 Z M6.23798199,10.2137931 C4.53864447,10.2137931 3.13979956,11.4862069 2.92220146,13.1103448 L13.6984882,13.1103448 C13.4808901,11.4758621 12.0820452,10.2137931 10.3827077,10.2137931 L6.23798199,10.2137931 Z" id="profile" fill="#757E7F"></path>
                <rect id="bounds" stroke="#979797" stroke-width="0.01" x="0.005" y="0.005" width="15.99" height="15.99"></rect>
            </g>
        </g>
    </g>
</svg>