<?xml version="1.0" encoding="UTF-8"?>
<svg width="16px" height="16px" viewBox="0 0 16 16" version="1.1" xmlns="http://www.w3.org/2000/svg" xmlns:xlink="http://www.w3.org/1999/xlink">
    <!-- Generator: Sketch 46.2 (44496) - http://www.bohemiancoding.com/sketch -->
    <title>EditContactHover@1x</title>
    <desc>Created with Sketch.</desc>
    <defs></defs>
    <g id="Assets" stroke="none" stroke-width="1" fill="none" fill-rule="evenodd">
        <g id="Assets-Where-Section" transform="translate(-790.000000, -110.000000)">
            <g id="EditContactHover" transform="translate(789.750000, 110.000000)">
                <path d="M13.7716761,13.1487889 C14.0100111,13.1487889 14.2068966,13.3460208 14.2068966,13.5743945 C14.2068966,13.8027682 14.0203735,14 13.7820385,14 L2.43522042,14 C2.20724782,14 2.01036239,13.8027682 2.01036239,13.5743945 C2.01036239,13.3460208 2.19688543,13.1487889 2.43522042,13.1487889 L13.7716761,13.1487889 Z M2.01036239,9.38062284 L2.01036239,9.38062284 C2.01036239,9.26643599 2.06217435,9.16262976 2.13471108,9.07958478 L7.68895264,3.52595156 L9.07751303,2.12456747 C9.25367367,1.95847751 9.52309584,1.95847751 9.68889409,2.12456747 L11.6784732,4.1384083 C11.8442714,4.31487889 11.8442714,4.58477509 11.6784732,4.75086505 L4.73567121,11.7058824 C4.65277209,11.7889273 4.54914818,11.8304498 4.43516188,11.8304498 L2.42485803,11.8408304 C2.31087173,11.8408304 2.20724782,11.799308 2.12434869,11.716263 C2.04144956,11.633218 2,11.5190311 2,11.4048443 L2.01036239,9.38062284 Z" id="edit" fill="#FC3446"></path>
                <rect id="bounds" stroke="#979797" stroke-width="0.01" x="0.005" y="0.005" width="15.99" height="15.99"></rect>
            </g>
        </g>
    </g>
</svg>