<?xml version="1.0" encoding="UTF-8"?>
<svg width="20px" height="20px" viewBox="0 0 20 20" version="1.1" xmlns="http://www.w3.org/2000/svg" xmlns:xlink="http://www.w3.org/1999/xlink">
    <!-- Generator: Sketch 46.2 (44496) - http://www.bohemiancoding.com/sketch -->
    <title>MyLocation@1x</title>
    <desc>Created with Sketch.</desc>
    <defs></defs>
    <g id="Assets" stroke="none" stroke-width="1" fill="none" fill-rule="evenodd">
        <g id="Assets-Where-Section" transform="translate(-407.000000, -68.000000)">
            <g id="MyLocation" transform="translate(405.000000, 66.000000)">
                <g id="ic_my_location">
                    <polygon id="Bounds" points="0 0 24 0 24 24 0 24"></polygon>
                    <path d="M12,8.36363636 C9.99090909,8.36363636 8.36363636,9.99090909 8.36363636,12 C8.36363636,14.0090909 9.99090909,15.6363636 12,15.6363636 C14.0090909,15.6363636 15.6363636,14.0090909 15.6363636,12 C15.6363636,9.99090909 14.0090909,8.36363636 12,8.36363636 L12,8.36363636 Z M20.1272727,11.0909091 C19.7090909,7.3 16.7,4.29090909 12.9090909,3.87272727 L12.9090909,2 L11.0909091,2 L11.0909091,3.87272727 C7.3,4.29090909 4.29090909,7.3 3.87272727,11.0909091 L2,11.0909091 L2,12.9090909 L3.87272727,12.9090909 C4.29090909,16.7 7.3,19.7090909 11.0909091,20.1272727 L11.0909091,22 L12.9090909,22 L12.9090909,20.1272727 C16.7,19.7090909 19.7090909,16.7 20.1272727,12.9090909 L22,12.9090909 L22,11.0909091 L20.1272727,11.0909091 L20.1272727,11.0909091 Z M12,18.3636364 C8.48181818,18.3636364 5.63636364,15.5181818 5.63636364,12 C5.63636364,8.48181818 8.48181818,5.63636364 12,5.63636364 C15.5181818,5.63636364 18.3636364,8.48181818 18.3636364,12 C18.3636364,15.5181818 15.5181818,18.3636364 12,18.3636364 L12,18.3636364 Z" id="Shape" fill="#F64656"></path>
                </g>
            </g>
        </g>
    </g>
</svg>