<?xml version="1.0" encoding="UTF-8"?>
<svg width="20px" height="20px" viewBox="0 0 20 20" version="1.1" xmlns="http://www.w3.org/2000/svg" xmlns:xlink="http://www.w3.org/1999/xlink">
    <!-- Generator: Sketch 46.2 (44496) - http://www.bohemiancoding.com/sketch -->
    <title>OptimizePath@1x</title>
    <desc>Created with Sketch.</desc>
    <defs>
        <circle id="path-1" cx="12" cy="12" r="10"></circle>
    </defs>
    <g id="Assets" stroke="none" stroke-width="1" fill="none" fill-rule="evenodd">
        <g id="Assets-Where-Section" transform="translate(-142.000000, -66.000000)">
            <g id="OptimizePath" transform="translate(140.000000, 64.000000)">
                <g id="Oval">
                    <use fill="#F7FBFC" fill-rule="evenodd" xlink:href="#path-1"></use>
                    <circle stroke="#929A9B" stroke-width="1" cx="12" cy="12" r="9.5"></circle>
                </g>
                <g id="noun_646336" transform="translate(6.000000, 6.000000)" fill-rule="nonzero" fill="#929A9B">
                    <path d="M5.28124668,5.47102219 L5.28745861,5.47723412 L0.910120824,5.47723412 C0.420266021,5.47723412 0.0227027027,5.87479744 0.0227027027,6.36465224 L0.0227027027,11.0963657 C0.0227027027,11.5868121 0.420266021,11.9837838 0.910120824,11.9837838 L5.64183425,11.9837838 C6.13198485,11.9837838 6.52925237,11.5868121 6.52925237,11.0963657 L6.52925237,6.71902788 L6.53605591,6.72583142 L8,5.26129571 L6.74489497,4.00648649 L5.28124668,5.47102219 Z M4.75441612,10.2089475 L1.79753895,10.2089475 L1.79753895,7.25207036 L4.75441612,7.25207036 L4.75441612,10.2089475 Z" id="Shape"></path>
                    <rect id="Rectangle-path" transform="translate(5.255543, 6.750817) rotate(-135.008103) translate(-5.255543, -6.750817) " x="4.76906138" y="6.18333638" width="1" height="1.1349621"></rect>
                    <rect id="Rectangle-path" transform="translate(6.861401, 5.145503) rotate(-135.000000) translate(-6.861401, -5.145503) " x="6.37500059" y="4.57785979" width="1" height="1.13528641"></rect>
                    <path d="M11.5041081,0.0162162162 L8.91016216,0.0162162162 C8.64162162,0.0162162162 8.42367568,0.234 8.42367568,0.502702703 L8.42367568,2.89524324 L7.72151351,3.59740541 L8.40940541,4.2852973 L9.11156757,3.58313514 L11.5041081,3.58313514 C11.7728108,3.58313514 11.9905946,3.36518919 11.9905946,3.09664865 L11.9905946,0.502702703 C11.9905946,0.233837838 11.7728108,0.0162162162 11.5041081,0.0162162162 Z M11.0176216,2.61016216 L9.39664865,2.61016216 L9.39664865,0.989189189 L11.0176216,0.989189189 L11.0176216,2.61016216 Z" id="Shape"></path>
                </g>
            </g>
        </g>
    </g>
</svg>