<?xml version="1.0" encoding="UTF-8"?>
<svg width="25px" height="24px" viewBox="0 0 25 24" version="1.1" xmlns="http://www.w3.org/2000/svg" xmlns:xlink="http://www.w3.org/1999/xlink">
    <!-- Generator: Sketch 46.2 (44496) - http://www.bohemiancoding.com/sketch -->
    <title>OptimizeHover@1x</title>
    <desc>Created with Sketch.</desc>
    <defs>
        <circle id="path-1" cx="12" cy="12" r="10"></circle>
    </defs>
    <g id="Assets" stroke="none" stroke-width="1" fill="none" fill-rule="evenodd">
        <g id="Assets-Where-Section" transform="translate(-141.000000, -124.000000)">
            <g id="OptimizeHover" transform="translate(141.500000, 124.000000)">
                <g id="Oval">
                    <use fill="#C5F4FF" fill-rule="evenodd" xlink:href="#path-1"></use>
                    <circle stroke="#000000" stroke-width="1" cx="12" cy="12" r="9.5"></circle>
                </g>
                <g id="noun_646336" transform="translate(6.000000, 6.000000)" fill-rule="nonzero" fill="#000000">
                    <path d="M5.28124668,5.47102219 L5.28745861,5.47723412 L0.910120824,5.47723412 C0.420266021,5.47723412 0.0227027027,5.87479744 0.0227027027,6.36465224 L0.0227027027,11.0963657 C0.0227027027,11.5868121 0.420266021,11.9837838 0.910120824,11.9837838 L5.64183425,11.9837838 C6.13198485,11.9837838 6.52925237,11.5868121 6.52925237,11.0963657 L6.52925237,6.71902788 L6.53605591,6.72583142 L8,5.26129571 L6.74489497,4.00648649 L5.28124668,5.47102219 Z M4.75441612,10.2089475 L1.79753895,10.2089475 L1.79753895,7.25207036 L4.75441612,7.25207036 L4.75441612,10.2089475 Z" id="Shape"></path>
                    <path d="M11.5041081,0.0162162162 L8.91016216,0.0162162162 C8.64162162,0.0162162162 8.42367568,0.234 8.42367568,0.502702703 L8.42367568,2.89524324 L7.72151351,3.59740541 L8.40940541,4.2852973 L9.11156757,3.58313514 L11.5041081,3.58313514 C11.7728108,3.58313514 11.9905946,3.36518919 11.9905946,3.09664865 L11.9905946,0.502702703 C11.9905946,0.233837838 11.7728108,0.0162162162 11.5041081,0.0162162162 Z M11.0176216,2.61016216 L9.39664865,2.61016216 L9.39664865,0.989189189 L11.0176216,0.989189189 L11.0176216,2.61016216 Z" id="Shape"></path>
                </g>
                <rect id="bounds" stroke="#979797" stroke-width="0.01" x="0.005" y="0.005" width="23.99" height="23.99"></rect>
            </g>
        </g>
    </g>
</svg>