<?xml version="1.0" encoding="UTF-8"?>
<svg width="24px" height="24px" viewBox="0 0 24 24" version="1.1" xmlns="http://www.w3.org/2000/svg" xmlns:xlink="http://www.w3.org/1999/xlink">
    <!-- Generator: Sketch 46.2 (44496) - http://www.bohemiancoding.com/sketch -->
    <title>SavedLocDrop@1x</title>
    <desc>Created with Sketch.</desc>
    <defs></defs>
    <g id="Assets" stroke="none" stroke-width="1" fill="none" fill-rule="evenodd">
        <g id="Assets-Where-Section" transform="translate(-261.000000, -64.000000)">
            <g id="SavedLocDrop" transform="translate(261.000000, 64.000000)">
                <path d="M10.0366625,9.75712391 C9.96073085,9.9469531 9.77687647,10.0714286 9.57242418,10.0714286 L4.67110564,10.0714286 L8.39647145,13.9664013 C8.52538163,14.1011804 8.56856428,14.2965033 8.50848632,14.4730646 L6.84251549,19.3691357 L11.7437477,16.4283964 C11.9020889,16.3333917 12.0999023,16.3333917 12.2582435,16.4283964 L17.253507,19.4255545 L15.8641083,14.4463872 C15.8187455,14.2838212 15.8584575,14.1093411 15.9697081,13.9824205 L19.3978368,10.0714286 L14.429567,10.0714286 C14.2251147,10.0714286 14.0412604,9.9469531 13.9653287,9.75712391 L12.0009956,4.8462912 L10.0366625,9.75712391 Z M9.2339077,9.07142857 L11.5367573,3.31430466 C11.7043864,2.89523178 12.2976048,2.89523178 12.465234,3.31430466 L14.7680835,9.07142857 L20.5009956,9.07142857 C20.9307802,9.07142857 21.1602938,9.57780846 20.8769974,9.90100804 L16.9000155,14.438161 L18.5540257,20.3656128 C18.6755187,20.8010052 18.2027851,21.1613117 17.8151763,20.9287465 L12.0009956,17.440238 L6.18681491,20.9287465 C5.78744113,21.1683707 5.30618883,20.779855 5.45621918,20.3389354 L7.46402207,14.4382644 L3.13966262,9.91702729 C2.83546149,9.59897661 3.06088817,9.07142857 3.50099561,9.07142857 L9.2339077,9.07142857 Z" id="Stroke-40" fill="#757E7F" fill-rule="nonzero"></path>
                <rect id="bounds" stroke="#979797" stroke-width="0.01" x="0.005" y="0.005" width="23.99" height="23.99"></rect>
            </g>
        </g>
    </g>
</svg>