<?xml version="1.0" encoding="UTF-8"?>
<svg width="40px" height="40px" viewBox="0 0 40 40" version="1.1" xmlns="http://www.w3.org/2000/svg" xmlns:xlink="http://www.w3.org/1999/xlink">
    <!-- Generator: Sketch 46.2 (44496) - http://www.bohemiancoding.com/sketch -->
    <title>Vehicle-Done@1x</title>
    <desc>Created with Sketch.</desc>
    <defs>
        <circle id="path-1" cx="9" cy="9" r="9"></circle>
    </defs>
    <g id="Assets" stroke="none" stroke-width="1" fill="none" fill-rule="evenodd">
        <g id="Assets-Menu" transform="translate(-291.000000, -179.000000)">
            <g id="Vehicle-Done" transform="translate(291.000000, 179.000000)">
                <rect id="Rectangle-2" stroke="#979797" stroke-width="0.01" x="0.005" y="0.005" width="39.99" height="39.99"></rect>
                <g id="Truck" transform="translate(6.000000, 10.000000)" stroke="#757E7F" fill-rule="nonzero">
                    <path d="M23.1540971,5.4940647 L17.3748563,5.4940647 L17.3748563,1.41427634 C17.3745662,0.662896707 16.7662098,0.0548304059 16.0148302,0.0548304059 L1.39599954,0.0548304059 L1.39599954,0.05425019 C0.644329797,0.05425019 0.035973388,0.662606599 0.035973388,1.41427634 L0.035973388,16.0345575 L0.035973388,16.0345575 C0.036553604,16.785647 0.644619905,17.3931331 1.39570943,17.3931331 L4.2962089,17.3931331 C4.22745331,17.175262 4.17958549,16.9478174 4.15637686,16.71312 L1.39570943,16.71312 C1.01972951,16.71312 0.715696357,16.4090869 0.715696357,16.033107 L0.715696357,1.41427634 C0.715696357,1.03829642 1.01972951,0.734263267 1.39570943,0.734263267 L1.39570943,0.734843483 L16.01454,0.734843483 C16.39052,0.734843483 16.6945531,1.03887663 16.6945531,1.41485656 L16.6945531,16.7128299 L10.8744071,16.7128299 C10.8511984,16.9475273 10.8033306,17.1749719 10.734575,17.392843 L16.6948432,17.392843 L16.6948432,17.3931331 L17.3748563,17.3931331 L17.3748563,17.392843 L17.8950199,17.392843 C17.8262643,17.1749719 17.7783965,16.9475273 17.7551879,16.7128299 L17.3748563,16.7128299 L17.3748563,6.17378767 L23.1543872,6.17378767 C25.0337067,6.17378767 26.5541625,7.69424353 26.5541625,9.57356294 L26.5541625,16.033107 C26.5541625,16.4090869 26.2501294,16.71312 25.8741494,16.71312 L24.4737983,16.71312 C24.4505896,16.9478174 24.4027218,17.175262 24.3339662,17.3931331 L25.8744396,17.3931331 C26.6261093,17.3931331 27.2344657,16.7847767 27.2344657,16.033107 L27.2344657,9.57356294 C27.2338855,7.31884381 25.4091064,5.4940647 23.1540971,5.4940647 Z" id="Shape"></path>
                    <path d="M21.114348,13.6530612 C19.6110085,13.6530612 18.3945858,14.8694839 18.3945858,16.3728234 C18.3945858,17.8761629 19.6110085,19.0925856 21.114348,19.0925856 C22.6176875,19.0925856 23.8341102,17.8761629 23.8341102,16.3728234 C23.8341102,14.8694839 22.6176875,13.6530612 21.114348,13.6530612 Z M21.114348,18.4128626 C19.9866983,18.4128626 19.0745989,17.5004731 19.0745989,16.3731135 C19.0745989,15.2457539 19.9869885,14.3333644 21.114348,14.3333644 C22.2417076,14.3333644 23.1540971,15.2457539 23.1540971,16.3731135 C23.1540971,17.5004731 22.2419977,18.4128626 21.114348,18.4128626 Z" id="Shape" stroke-width="0.8" fill="#898390"></path>
                    <path d="M7.51553702,13.6530612 C6.01219753,13.6530612 4.79577482,14.8694839 4.79577482,16.3728234 C4.79577482,17.8761629 6.01219753,19.0925856 7.51553702,19.0925856 C9.01887651,19.0925856 10.2352992,17.8761629 10.2352992,16.3728234 C10.2352992,14.8694839 9.01887651,13.6530612 7.51553702,13.6530612 Z M7.51553702,18.4128626 C6.38788735,18.4128626 5.47578789,17.5004731 5.47578789,16.3731135 C5.47578789,15.2457539 6.38817745,14.3333644 7.51553702,14.3333644 C8.64289658,14.3333644 9.55528614,15.2457539 9.55528614,16.3731135 C9.55528614,17.5004731 8.64318669,18.4128626 7.51553702,18.4128626 Z" id="Shape" stroke-width="0.8" fill="#898390"></path>
                </g>
                <g id="Done-Icon" transform="translate(21.000000, 1.000000)">
                    <g>
                        <g id="Oval">
                            <use fill="#C5F4FF" fill-rule="evenodd" xlink:href="#path-1"></use>
                            <circle stroke="#C9D2D6" stroke-width="1" cx="9" cy="9" r="8.5"></circle>
                        </g>
                        <path d="M7.44684529,10.2057044 L5.46326707,8.23509075 L4.15384615,9.55747623 L6.78565255,12.1892826 C6.95419188,12.3707865 7.20051858,12.4615385 7.44684529,12.4615385 C7.693172,12.4615385 7.92653414,12.357822 8.10803803,12.1892826 L13.4494382,6.84788245 L12.1270527,5.53846154 L7.44684529,10.2057044 Z" id="Shape" fill="#757E7F" fill-rule="nonzero"></path>
                    </g>
                </g>
            </g>
        </g>
    </g>
</svg>