<?xml version="1.0" encoding="UTF-8"?>
<svg width="40px" height="40px" viewBox="0 0 40 40" version="1.1" xmlns="http://www.w3.org/2000/svg" xmlns:xlink="http://www.w3.org/1999/xlink">
    <!-- Generator: Sketch 46.2 (44496) - http://www.bohemiancoding.com/sketch -->
    <title>What-Done@1x</title>
    <desc>Created with Sketch.</desc>
    <defs>
        <circle id="path-1" cx="9" cy="9" r="9"></circle>
    </defs>
    <g id="Assets" stroke="none" stroke-width="1" fill="none" fill-rule="evenodd">
        <g id="Assets-Menu" transform="translate(-753.000000, -189.000000)">
            <g id="What-Done" transform="translate(753.000000, 189.000000)">
                <g id="Icon" stroke="#979797" stroke-width="0.01">
                    <rect id="Rectangle" x="0.005" y="0.005" width="39.99" height="39.99"></rect>
                </g>
                <path d="M19.9806558,6.00087362 C19.9014612,6.00479402 19.8292061,6.02119126 19.7678586,6.0397665 L7.38693422,11.0180558 C7.15797997,11.1111591 6.99746438,11.3531911 7.00003033,11.6014491 L7.00003033,28.4031972 C7.00126842,28.6482223 7.16097925,28.8849711 7.38693422,28.9768517 L19.7678586,33.9551721 C19.9149224,34.0149426 20.0850796,34.0149426 20.2321433,33.9551721 L32.6130678,28.9768517 C32.8390228,28.8849711 32.9986996,28.6482223 32.9999717,28.4031972 L32.9999717,11.6014491 C33.0024479,11.3531911 32.8420221,11.1111591 32.6130678,11.0180558 L20.2321433,6.0397665 C20.1459907,6.00553765 20.0598504,5.99696255 19.9806558,6.00087362 L19.9806558,6.00087362 Z M20.000001,7.29406204 L30.7075662,11.6014491 L26.1904632,13.4099682 L15.4828981,9.11230442 L20.000001,7.29406204 Z M13.8095387,9.78320668 L24.5171039,14.0905937 L20.000001,15.8991129 L9.29243579,11.6014491 L13.8095387,9.78320668 Z M8.23812269,12.5154319 L19.3809548,16.9978369 L19.3809548,32.4480572 L8.23812269,27.9753754 L8.23812269,12.5154319 L8.23812269,12.5154319 Z M31.7618793,12.5154319 L31.7618793,27.9753754 L20.6190472,32.4480572 L20.6190472,16.9978369 L25.571417,15.0045765 L25.571417,19.0688923 C25.5682637,19.2933084 25.6855587,19.5020473 25.8783885,19.6151804 C26.0712182,19.7283135 26.3097083,19.7283135 26.502538,19.6151804 C26.6953678,19.5020473 26.8126628,19.2933084 26.8095095,19.0688923 L26.8095095,14.5086922 L31.7618793,12.5154319 L31.7618793,12.5154319 Z" id="Shape" stroke="#757E7F" stroke-width="0.5" fill="#757E7F" fill-rule="nonzero"></path>
                <g id="Done-Icon" transform="translate(21.000000, 1.000000)">
                    <g>
                        <g id="Oval">
                            <use fill="#C5F4FF" fill-rule="evenodd" xlink:href="#path-1"></use>
                            <circle stroke="#C9D2D6" stroke-width="1" cx="9" cy="9" r="8.5"></circle>
                        </g>
                        <path d="M7.44684529,10.2057044 L5.46326707,8.23509075 L4.15384615,9.55747623 L6.78565255,12.1892826 C6.95419188,12.3707865 7.20051858,12.4615385 7.44684529,12.4615385 C7.693172,12.4615385 7.92653414,12.357822 8.10803803,12.1892826 L13.4494382,6.84788245 L12.1270527,5.53846154 L7.44684529,10.2057044 Z" id="Shape" fill="#757E7F" fill-rule="nonzero"></path>
                    </g>
                </g>
            </g>
        </g>
    </g>
</svg>