<?xml version="1.0" encoding="UTF-8"?>
<svg width="40px" height="40px" viewBox="0 0 40 40" version="1.1" xmlns="http://www.w3.org/2000/svg" xmlns:xlink="http://www.w3.org/1999/xlink">
    <!-- Generator: Sketch 46.2 (44496) - http://www.bohemiancoding.com/sketch -->
    <title>When-Done@1x</title>
    <desc>Created with Sketch.</desc>
    <defs>
        <circle id="path-1" cx="9" cy="9" r="9"></circle>
    </defs>
    <g id="Assets" stroke="none" stroke-width="1" fill="none" fill-rule="evenodd">
        <g id="Assets-Menu" transform="translate(-753.000000, -99.000000)">
            <g id="When-Done" transform="translate(753.000000, 99.000000)">
                <g id="Where-Selected-Icon" stroke="#979797" stroke-width="0.01">
                    <rect id="Rectangle" x="0.005" y="0.005" width="39.99" height="39.99"></rect>
                </g>
                <path d="M20,34 C27.7374784,34 34,27.7132988 34,20 C34,12.2625216 27.7132988,6 20,6 C12.2867012,6 6,12.2625216 6,20 C6,27.7132988 12.2625216,34 20,34 L20,34 Z M20,7.95854922 C26.6493955,7.95854922 32.0414508,13.3506045 32.0414508,20 C32.0414508,26.6493955 26.6493955,32.0414508 20,32.0414508 C13.3506045,32.0414508 7.95854922,26.6252159 7.95854922,20 C7.95854922,13.3506045 13.3506045,7.95854922 20,7.95854922 Z M19.3471503,21.6442142 L24.0138169,21.6442142 C24.5699482,21.6442142 25.0051813,21.208981 25.0051813,20.6528497 C25.0051813,20.0967185 24.5699482,19.6614853 24.0138169,19.6614853 L20.3385147,19.6614853 L20.3385147,13.9067358 C20.3385147,13.3506045 19.9032815,12.9153713 19.3471503,12.9153713 C18.791019,12.9153713 18.3557858,13.3506045 18.3557858,13.9067358 L18.3557858,20.6528497 C18.3557858,21.208981 18.791019,21.6442142 19.3471503,21.6442142 L19.3471503,21.6442142 Z" id="clock" fill="#757E7F"></path>
                <g id="Done-Icon" transform="translate(21.000000, 1.000000)">
                    <g>
                        <g id="Oval">
                            <use fill="#C5F4FF" fill-rule="evenodd" xlink:href="#path-1"></use>
                            <circle stroke="#C9D2D6" stroke-width="1" cx="9" cy="9" r="8.5"></circle>
                        </g>
                        <path d="M7.44684529,10.2057044 L5.46326707,8.23509075 L4.15384615,9.55747623 L6.78565255,12.1892826 C6.95419188,12.3707865 7.20051858,12.4615385 7.44684529,12.4615385 C7.693172,12.4615385 7.92653414,12.357822 8.10803803,12.1892826 L13.4494382,6.84788245 L12.1270527,5.53846154 L7.44684529,10.2057044 Z" id="Shape" fill="#757E7F" fill-rule="nonzero"></path>
                    </g>
                </g>
            </g>
        </g>
    </g>
</svg>