<?xml version="1.0" encoding="UTF-8"?>
<svg width="40px" height="40px" viewBox="0 0 40 40" version="1.1" xmlns="http://www.w3.org/2000/svg" xmlns:xlink="http://www.w3.org/1999/xlink">
    <!-- Generator: Sketch 46.2 (44496) - http://www.bohemiancoding.com/sketch -->
    <title>WhereDone@1x</title>
    <desc>Created with Sketch.</desc>
    <defs>
        <circle id="path-1" cx="9" cy="9" r="9"></circle>
    </defs>
    <g id="Assets" stroke="none" stroke-width="1" fill="none" fill-rule="evenodd">
        <g id="Assets-Menu" transform="translate(-291.000000, -99.000000)">
            <g id="WhereDone" transform="translate(291.000000, 99.000000)">
                <g id="Where-Selected-Icon">
                    <rect id="Rectangle" stroke="#979797" stroke-width="0.01" x="0.005" y="0.005" width="39.99" height="39.99"></rect>
                    <path d="M20.0118491,6 C13.9470078,6 9,11.0163652 9,17.1903531 C9,17.9379845 9.07135107,18.6856158 9.21405322,19.4091301 C9.21405322,19.4573643 9.23783691,19.5055986 9.23783691,19.57795 C10.4508052,25.1007752 18.9891504,33.3970715 19.3459058,33.7347115 C19.5361753,33.9276486 19.7740122,34 20.0118491,34 C20.2496861,34 20.487523,33.9035314 20.6777925,33.7347115 C21.0345479,33.3729543 29.5253257,25.1007752 30.738294,19.6985357 C30.738294,19.6503015 30.7620777,19.6020672 30.7620777,19.5538329 C30.9285635,18.7820844 30.9999146,17.9862188 30.9999146,17.1903531 C31.0236983,11.0163652 26.0766905,6 20.0118491,6 L20.0118491,6 Z M28.8593824,19.1920758 L28.8593824,19.2644272 C27.9556021,23.2678725 22.0334629,29.5865633 20.0118491,31.6365202 C17.9902354,29.5865633 12.0443125,23.2678725 11.1405322,19.1679587 C11.1405322,19.1197244 11.1405322,19.0956072 11.1167485,19.047373 C10.9978301,18.4203273 10.926479,17.7932817 10.926479,17.166236 C10.926479,12.1016365 14.9934902,7.95348837 19.9880655,7.95348837 C24.9826407,7.95348837 29.0734356,12.0775194 29.0734356,17.166236 C29.0734356,17.8656331 29.0020845,18.540913 28.8593824,19.1920758 L28.8593824,19.1920758 Z M20.0118491,12.2945736 C17.9664517,12.2945736 16.325377,13.9827735 16.325377,16.0327304 C16.325377,18.0826873 17.9902354,19.7708872 20.0118491,19.7708872 C22.0334629,19.7708872 23.6983213,18.1068045 23.6983213,16.0327304 C23.6983213,13.9586563 22.0572466,12.2945736 20.0118491,12.2945736 Z M20.0118491,17.8173988 C19.0367178,17.8173988 18.251856,17.0215332 18.251856,16.0327304 C18.251856,15.0439276 19.0367178,14.248062 20.0118491,14.248062 C20.9869805,14.248062 21.7718423,15.0439276 21.7718423,16.0327304 C21.7718423,17.0215332 20.9869805,17.8173988 20.0118491,17.8173988 Z" id="WhereIcon" fill="#757E7F"></path>
                </g>
                <g id="Done-Icon" transform="translate(21.000000, 1.000000)">
                    <g>
                        <g id="Oval">
                            <use fill="#C5F4FF" fill-rule="evenodd" xlink:href="#path-1"></use>
                            <circle stroke="#C9D2D6" stroke-width="1" cx="9" cy="9" r="8.5"></circle>
                        </g>
                        <path d="M7.44684529,10.2057044 L5.46326707,8.23509075 L4.15384615,9.55747623 L6.78565255,12.1892826 C6.95419188,12.3707865 7.20051858,12.4615385 7.44684529,12.4615385 C7.693172,12.4615385 7.92653414,12.357822 8.10803803,12.1892826 L13.4494382,6.84788245 L12.1270527,5.53846154 L7.44684529,10.2057044 Z" id="Shape" fill="#757E7F" fill-rule="nonzero"></path>
                    </g>
                </g>
            </g>
        </g>
    </g>
</svg>