<?xml version="1.0" encoding="UTF-8"?>
<svg width="150px" height="39px" viewBox="0 0 150 39" version="1.1" xmlns="http://www.w3.org/2000/svg" xmlns:xlink="http://www.w3.org/1999/xlink">
    <!-- Generator: Sketch 46.2 (44496) - http://www.bohemiancoding.com/sketch -->
    <title>BlackLogo@1x</title>
    <desc>Created with Sketch.</desc>
    <defs>
        <polygon id="path-1" points="14.8693933 37.6749487 0 37.6749487 0 0.321889474 14.8693933 0.321889474 29.7387866 0.321889474 29.7387866 37.6749487"></polygon>
        <polygon id="path-3" points="0 38.0140894 149.438676 38.0140894 149.438676 0.661030109 0 0.661030109"></polygon>
    </defs>
    <g id="Assets" stroke="none" stroke-width="1" fill="none" fill-rule="evenodd">
        <g id="Assets-Common" transform="translate(-45.000000, -183.000000)">
            <g id="BlackLogo" transform="translate(45.000000, 183.000000)">
                <g id="Group-3" transform="translate(0.000000, 0.339141)">
                    <mask id="mask-2" fill="white">
                        <use xlink:href="#path-1"></use>
                    </mask>
                    <g id="Clip-2"></g>
                    <path d="M25.5831409,5.23946173 C26.610279,6.53627312 26.6334127,7.88530067 26.5527751,8.6083953 C26.4007534,10.2839391 25.3220601,11.3256184 25.3227211,11.3256184 L19.8770386,16.769318 L17.904061,14.7963404 L17.9034,14.7970014 L15.3824833,12.2760846 L15.3791785,12.2800504 L13.4736192,10.3744911 L13.4379271,10.33946 C12.650058,9.60050228 11.4636276,9.45575116 10.5865284,9.9693202 C9.79998122,10.4042345 9.31152882,11.2205251 9.31152882,12.0989463 L9.31152882,16.4831205 L9.31152882,20.6458719 L9.30624111,20.6511596 L9.30624111,25.9011968 C9.30624111,26.7802789 9.79469351,27.5972304 10.5481925,28.0136377 C10.9163494,28.229773 11.3294519,28.3355272 11.7438764,28.3355272 C12.3546071,28.3355272 12.9679817,28.1055117 13.4385881,27.6626659 L17.904061,23.1985149 L17.904061,23.1985149 L17.904061,23.1991759 L19.8763776,21.2261983 L25.2672001,26.6176818 L25.3227211,26.6698979 C25.3332965,26.6804733 26.4014143,27.7188478 26.5560799,29.4208301 C26.6334127,30.1102156 26.610279,31.4592431 25.5831409,32.7567155 C24.2050309,34.4970337 22.2888962,34.5214894 22.1765324,34.5214894 L22.1732275,34.5214894 L3.15200518,34.5208285 L3.15200518,3.47468781 L22.1553815,3.47468781 C22.2333753,3.47138299 24.185202,3.47468781 25.5831409,5.23946173 L25.5831409,5.23946173 Z M17.0157253,18.3655461 L17.6476069,18.9980886 L17.0150644,19.6306312 L17.0150644,19.6299702 L12.4583785,24.1873171 L12.4583785,21.0331968 L12.4630052,21.0391455 L12.4630052,17.9412072 L12.4630052,16.4831205 L12.4630052,13.8220794 L14.929062,16.2874752 L14.9330277,16.2835094 L17.0150644,18.366207 L17.0157253,18.3655461 Z M22.1170456,0.323211402 L3.15134422,0.322550438 L3.15200518,0.321889474 L-0.000132192803,0.321889474 L-0.000132192803,37.6749487 L3.15200518,37.6749487 L3.15134422,37.6729658 L22.1170456,37.6729658 L22.1421622,37.6729658 C22.6630019,37.6729658 25.8072077,37.5506875 28.0538244,34.713169 C29.3354336,33.09579 29.91576,31.0910862 29.6916932,29.1029064 C29.4418488,26.3440427 27.7967094,24.6704818 27.4768028,24.3690822 L22.1051482,18.9974277 L27.4768028,13.6264341 C27.7967094,13.3256955 29.4418488,11.6534565 29.6883884,8.92631899 C29.91576,6.90443008 29.3347726,4.89972623 28.0538244,3.28300825 C25.7662279,0.393934552 22.5354358,0.329821042 22.1170456,0.323211402 L22.1170456,0.323211402 Z" id="Fill-1" fill="#141515" mask="url(#mask-2)"></path>
                </g>
                <path d="M56.8943942,22.2327804 C56.8943942,23.5295918 56.6709883,24.5567299 56.2254986,25.3148556 C55.7793479,26.0723203 55.0503046,26.4510527 54.0377077,26.4510527 C52.7732836,26.4510527 51.8816431,25.8918772 51.3627864,24.7735261 L51.3627864,19.3998886 C51.8730506,18.2980616 52.7567595,17.7468176 54.0132521,17.7468176 C55.0503046,17.7468176 55.7899233,18.1341426 56.2314473,18.9074704 C56.6736322,19.6821203 56.8943942,20.7052926 56.8943942,21.9776483 L56.8943942,22.2327804 Z M57.5487486,16.2940187 C56.7846742,15.7487234 55.8586636,15.4764063 54.7707168,15.4764063 C53.3549319,15.4764063 52.2299711,15.95891 51.3984784,16.9232565 L51.3984784,9.99965845 L48.4102601,9.99965845 L48.4102601,28.6758576 L51.1102981,28.6758576 L51.3984784,28.6758576 L51.3984784,27.2263635 C52.2412075,28.1887271 53.370795,28.6758576 54.7945115,28.6758576 C55.8665951,28.6758576 56.7826913,28.4015575 57.5427999,27.8522964 C58.3029085,27.3036963 58.8766253,26.5429267 59.2652721,25.5699877 C59.652597,24.5977096 59.8469204,23.4760537 59.8469204,22.2056809 L59.8469204,21.9584803 C59.8469204,20.6722444 59.6552409,19.5433178 59.2712208,18.5703788 C58.8872007,17.5981007 58.312823,16.8393141 57.5487486,16.2940187 L57.5487486,16.2940187 Z" id="Fill-4" fill="#141515"></path>
                <mask id="mask-4" fill="white">
                    <use xlink:href="#path-3"></use>
                </mask>
                <g id="Clip-7"></g>
                <polygon id="Fill-6" fill="#141515" mask="url(#mask-4)" points="62.3626156 28.6759898 65.3898307 28.6759898 65.3898307 10.0030955 62.3626156 10.0030955"></polygon>
                <path d="M77.0705851,22.2278893 C77.0705851,23.0012172 76.9588821,23.6972123 76.7361373,24.3145527 C76.5127314,24.931893 76.1690301,25.4223283 75.7030505,25.7858585 C75.2370709,26.1493888 74.6593883,26.3311539 73.9706638,26.3311539 C72.9329503,26.3311539 72.1549957,25.9484557 71.6361389,25.1823984 C71.1172822,24.4163411 70.8581843,23.4315047 70.8581843,22.2278893 L70.8581843,21.9813497 C70.8581843,21.2159534 70.9698872,20.5219411 71.1919711,19.900635 C71.415377,19.2793288 71.7577563,18.7855887 72.2197702,18.4174317 C72.681784,18.0505967 73.2568227,17.8668487 73.9455472,17.8668487 C74.6428642,17.8668487 75.2264955,18.0505967 75.6971018,18.4174317 C76.1670473,18.7855887 76.5127314,19.2793288 76.7361373,19.900635 C76.9588821,20.5219411 77.0705851,21.2159534 77.0705851,21.9813497 L77.0705851,22.2278893 Z M77.2345041,16.3605117 C76.3065107,15.8013362 75.2106323,15.5217484 73.9455472,15.5217484 C72.6983081,15.5217484 71.6116833,15.8013362 70.6883165,16.3605117 C69.7636279,16.9190263 69.0570574,17.6870665 68.5666221,18.6639713 C68.0761868,19.6408761 67.8309691,20.7466689 67.8309691,21.9813497 L67.8309691,22.2278893 C67.8309691,23.463231 68.0761868,24.5690238 68.5666221,25.5459286 C69.0570574,26.5228334 69.7656108,27.2888907 70.6942652,27.8434395 C71.6222587,28.3986493 72.7141712,28.6755932 73.9706638,28.6755932 C75.2264955,28.6755932 76.3164251,28.3986493 77.2404528,27.8434395 C78.1644805,27.2888907 78.871712,26.5228334 79.3621473,25.5459286 C79.8525826,24.5690238 80.0978002,23.463231 80.0978002,22.2278893 L80.0978002,21.9813497 C80.0978002,20.7466689 79.8525826,19.6408761 79.3621473,18.6639713 C78.871712,17.6870665 78.1624976,16.9190263 77.2345041,16.3605117 L77.2345041,16.3605117 Z" id="Fill-8" fill="#141515" mask="url(#mask-4)"></path>
                <polygon id="Fill-9" fill="#141515" mask="url(#mask-4)" points="94.0781145 24.5180635 91.3919567 15.5223433 91.0627966 15.5223433 89.1301379 15.5223433 86.4677748 24.4083434 84.389043 15.5223433 81.4470922 15.5223433 85.0090272 28.6761881 85.7869819 28.6761881 87.5015225 28.6761881 90.2365916 19.7525129 93.0199111 28.6761881 93.5923059 28.6761881 95.5124064 28.6761881 99.0750024 15.5223433 96.1323906 15.5223433"></polygon>
                <path d="M107.633032,15.542767 C106.903328,15.542767 106.229145,15.6888401 105.608499,15.9803252 C104.989176,16.2724713 104.452473,16.6855738 103.998391,17.2202937 L103.998391,9.99926187 L100.971176,9.99926187 L100.971176,28.676122 L103.998391,28.676122 L103.998391,19.5303629 C104.265421,19.052486 104.619697,18.6790413 105.061882,18.4113509 C105.503406,18.1443214 106.016314,18.0101457 106.599945,18.0101457 C107.3779,18.0101457 107.954922,18.1991814 108.332332,18.5759309 C108.709082,18.9526804 108.897456,19.5832401 108.897456,20.466288 L108.897456,28.676122 L111.924672,28.676122 L111.924672,20.4907436 C111.924672,17.1918723 110.493684,15.542767 107.633032,15.542767" id="Fill-10" fill="#141515" mask="url(#mask-4)"></path>
                <path d="M123.605294,22.2278893 C123.605294,23.0012172 123.493591,23.6972123 123.270846,24.3145527 C123.04744,24.931893 122.703739,25.4223283 122.237759,25.7858585 C121.77178,26.1493888 121.194097,26.3311539 120.505372,26.3311539 C119.467659,26.3311539 118.689704,25.9484557 118.170848,25.1823984 C117.651991,24.4163411 117.393554,23.4315047 117.393554,22.2278893 L117.393554,21.9813497 C117.393554,21.2159534 117.504596,20.5219411 117.72668,19.900635 C117.950086,19.2793288 118.292465,18.7855887 118.754479,18.4174317 C119.216493,18.0505967 119.791531,17.8668487 120.480256,17.8668487 C121.177573,17.8668487 121.761204,18.0505967 122.23181,18.4174317 C122.701756,18.7855887 123.04744,19.2793288 123.270846,19.900635 C123.493591,20.5219411 123.605294,21.2159534 123.605294,21.9813497 L123.605294,22.2278893 Z M123.769213,16.3605117 C122.841219,15.8013362 121.745341,15.5217484 120.480256,15.5217484 C119.233017,15.5217484 118.146392,15.8013362 117.223025,16.3605117 C116.298337,16.9190263 115.591766,17.6870665 115.101331,18.6639713 C114.611556,19.6408761 114.365678,20.7466689 114.365678,21.9813497 L114.365678,22.2278893 C114.365678,23.463231 114.611556,24.5690238 115.101331,25.5459286 C115.591766,26.5228334 116.300319,27.2888907 117.228974,27.8434395 C118.156967,28.3986493 119.24888,28.6755932 120.505372,28.6755932 C121.761204,28.6755932 122.851134,28.3986493 123.775161,27.8434395 C124.699189,27.2888907 125.406421,26.5228334 125.896856,25.5459286 C126.387291,24.5690238 126.632509,23.463231 126.632509,22.2278893 L126.632509,21.9813497 C126.632509,20.7466689 126.387291,19.6408761 125.896856,18.6639713 C125.406421,17.6870665 124.697206,16.9190263 123.769213,16.3605117 L123.769213,16.3605117 Z" id="Fill-11" fill="#141515" mask="url(#mask-4)"></path>
                <path d="M148.350729,16.4399596 C147.62499,15.6659707 146.593886,15.2786458 145.256756,15.2786458 C144.478802,15.2786458 143.765621,15.4306676 143.117216,15.734711 C142.505824,16.0209084 141.977053,16.4287232 141.524292,16.9495629 L141.524292,15.5198977 L138.497738,15.5198977 L138.497738,15.5218806 L138.497738,20.6079987 L138.497738,28.6757254 L141.524292,28.6757254 L141.524292,20.6079987 L141.524292,19.3151531 C141.791983,18.820752 142.148242,18.4360709 142.594393,18.1604489 C143.039883,17.8848269 143.546181,17.7466855 144.113949,17.7466855 C144.892565,17.7466855 145.469587,17.9310944 145.846336,18.2999123 C146.223086,18.6687302 146.41146,19.2906974 146.41146,20.1658137 L146.41146,28.6757254 L149.438676,28.6757254 L149.438676,20.1902694 C149.438676,18.4638314 149.076467,17.2139485 148.350729,16.4399596" id="Fill-12" fill="#141515" mask="url(#mask-4)"></path>
                <path d="M134.996546,15.278778 C134.34814,15.278778 133.776406,15.4294778 133.282005,15.7288945 C132.816025,16.0111261 132.424735,16.4096874 132.102845,16.9159859 L132.102845,15.5200299 L129.07563,15.5200299 L129.07563,15.5220128 L129.07563,20.6081309 L129.07563,28.6758576 L132.102845,28.6758576 L132.102845,20.6081309 L132.102845,19.7158294 C132.564859,18.7032326 133.472363,18.1969341 134.826017,18.1969341 C135.223256,18.1969341 135.624462,18.2293214 136.028972,18.2940958 L136.054088,15.4367484 C135.948334,15.3964296 135.788381,15.3600766 135.573567,15.3276894 C135.358754,15.2953021 135.166414,15.278778 134.996546,15.278778" id="Fill-13" fill="#141515" mask="url(#mask-4)"></path>
            </g>
        </g>
    </g>
</svg>