<?xml version="1.0" encoding="UTF-8"?>
<svg width="20px" height="20px" viewBox="0 0 20 20" version="1.1" xmlns="http://www.w3.org/2000/svg" xmlns:xlink="http://www.w3.org/1999/xlink">
    <!-- Generator: Sketch 46.2 (44496) - http://www.bohemiancoding.com/sketch -->
    <title>Blue-Marker@1x</title>
    <desc>Created with Sketch.</desc>
    <defs>
        <path d="M0.5528,7.7376 C0.5528,11.1344 2.868,13.9896 6.0064,14.8128 C6.5792,15.3872 7.8672,16.8808 7.8672,16.8808 C7.8672,16.8808 8.8912,15.6512 9.7272,14.8128 C12.8664,13.9912 15.1808,11.1352 15.1808,7.7376 C15.1808,3.6976 11.9072,0.424 7.8672,0.424 C3.8272,0.424 0.5528,3.6976 0.5528,7.7376 Z" id="path-1"></path>
    </defs>
    <g id="Assets" stroke="none" stroke-width="1" fill="none" fill-rule="evenodd">
        <g id="Assets-Common" transform="translate(-39.000000, -344.000000)">
            <g id="Blue-Marker" transform="translate(39.000000, 344.000000)">
                <rect id="bounds" stroke="#979797" stroke-width="0.01" x="0.005" y="0.005" width="19.99" height="19.99"></rect>
                <g id="Page-1" transform="translate(2.500000, 0.000000)">
                    <g id="Group-5" transform="translate(0.000000, 0.571200)">
                        <path d="M10.66744,16.88088 C10.66744,17.89048 9.41384,18.70968 7.86744,18.70968 C6.32024,18.70968 5.06664,17.89048 5.06664,16.88088 C5.06664,15.87048 6.32024,15.05208 7.86744,15.05208 C9.41384,15.05208 10.66744,15.87048 10.66744,16.88088" id="Fill-1" fill="#929A9B"></path>
                        <path d="M15.18112,7.73792 C15.18112,11.13552 12.86592,13.99072 9.72752,14.81312 C8.89072,15.65152 7.86672,16.88112 7.86672,16.88112 C7.86672,16.88112 6.57872,15.38752 6.00592,14.81312 C2.86832,13.98992 0.55232,11.13472 0.55232,7.73792 C0.55232,3.69792 3.82752,0.42352 7.86672,0.42352 C11.90672,0.42352 15.18112,3.69792 15.18112,7.73792" id="Fill-3" fill="#141515"></path>
                    </g>
                    <g id="Group-9" transform="translate(0.000000, 0.571200)">
                        <mask id="mask-2" fill="white">
                            <use xlink:href="#path-1"></use>
                        </mask>
                        <g id="Clip-7"></g>
                        <path d="M14.26704,7.75272 C14.26704,11.28712 11.40144,14.15272 7.86704,14.15272 C4.33264,14.15272 1.46704,11.28712 1.46704,7.75272 C1.46704,4.21832 4.33264,1.35272 7.86704,1.35272 C11.40144,1.35272 14.26704,4.21832 14.26704,7.75272" id="Fill-8" fill="#0AD1F2" mask="url(#mask-2)"></path>
                    </g>
                </g>
            </g>
        </g>
    </g>
</svg>