<?xml version="1.0" encoding="UTF-8"?>
<svg width="40px" height="40px" viewBox="0 0 40 40" version="1.1" xmlns="http://www.w3.org/2000/svg" xmlns:xlink="http://www.w3.org/1999/xlink">
    <!-- Generator: Sketch 46.2 (44496) - http://www.bohemiancoding.com/sketch -->
    <title>Done-Marker@1x</title>
    <desc>Created with Sketch.</desc>
    <defs>
        <path d="M1.1056,15.4752 C1.1056,22.2688 5.736,27.9792 12.0128,29.6256 C13.1584,30.7744 15.7344,33.7616 15.7344,33.7616 C15.7344,33.7616 17.7824,31.3024 19.4544,29.6256 C25.7328,27.9824 30.3616,22.2704 30.3616,15.4752 C30.3616,7.3952 23.8144,0.848 15.7344,0.848 C7.6544,0.848 1.1056,7.3952 1.1056,15.4752 Z" id="path-1"></path>
    </defs>
    <g id="Assets" stroke="none" stroke-width="1" fill="none" fill-rule="evenodd">
        <g id="Assets-Common" transform="translate(-439.000000, -417.000000)">
            <g id="Done-Marker" transform="translate(439.000000, 417.000000)">
                <g id="Page-1" transform="translate(5.000000, 0.000000)">
                    <g id="Group-5" transform="translate(0.000000, 1.142400)">
                        <path d="M21.33488,33.76176 C21.33488,35.78096 18.82768,37.41936 15.73488,37.41936 C12.64048,37.41936 10.13328,35.78096 10.13328,33.76176 C10.13328,31.74096 12.64048,30.10416 15.73488,30.10416 C18.82768,30.10416 21.33488,31.74096 21.33488,33.76176" id="Fill-1" fill="#757E7F"></path>
                        <path d="M30.36224,15.47584 C30.36224,22.27104 25.73184,27.98144 19.45504,29.62624 C17.78144,31.30304 15.73344,33.76224 15.73344,33.76224 C15.73344,33.76224 13.15744,30.77504 12.01184,29.62624 C5.73664,27.97984 1.10464,22.26944 1.10464,15.47584 C1.10464,7.39584 7.65504,0.84704 15.73344,0.84704 C23.81344,0.84704 30.36224,7.39584 30.36224,15.47584" id="Fill-3" fill="#141515"></path>
                    </g>
                    <g id="Group-9" transform="translate(0.000000, 1.142400)">
                        <mask id="mask-2" fill="white">
                            <use xlink:href="#path-1"></use>
                        </mask>
                        <g id="Clip-7"></g>
                        <path d="M28.53408,15.50544 C28.53408,22.57424 22.80288,28.30544 15.73408,28.30544 C8.66528,28.30544 2.93408,22.57424 2.93408,15.50544 C2.93408,8.43664 8.66528,2.70544 15.73408,2.70544 C22.80288,2.70544 28.53408,8.43664 28.53408,15.50544" id="Fill-8" fill="#2AC169" mask="url(#mask-2)"></path>
                    </g>
                </g>
                <rect id="bounds" stroke="#979797" stroke-width="0.01" x="0.005" y="0.005" width="39.99" height="39.99"></rect>
                <path d="M18.0898876,18.4082397 L15.2247191,15.5617978 L13.3333333,17.4719101 L17.1348315,21.2734082 C17.3782772,21.5355805 17.7340824,21.6666667 18.0898876,21.6666667 C18.4456929,21.6666667 18.7827715,21.5168539 19.0449438,21.2734082 L26.7602996,13.5580524 L24.8501873,11.6666667 L18.0898876,18.4082397 Z" id="Shape" fill="#FFFFFF" fill-rule="nonzero"></path>
            </g>
        </g>
    </g>
</svg>