<?xml version="1.0" encoding="UTF-8"?>
<svg width="20px" height="20px" viewBox="0 0 20 20" version="1.1" xmlns="http://www.w3.org/2000/svg" xmlns:xlink="http://www.w3.org/1999/xlink">
    <!-- Generator: Sketch 46.2 (44496) - http://www.bohemiancoding.com/sketch -->
    <title>GhostOff@1x</title>
    <desc>Created with Sketch.</desc>
    <defs>
        <path d="M6.11015623,16.6640624 C6.11015623,16.6640624 9.25077653,12.4402781 10.5539062,10.5883453 C11.8570359,8.73641247 12.2203125,7.5877031 12.2203125,6.11015623 C12.2203125,2.73512812 9.48518434,0 6.11015623,0 C2.73512812,0 0,2.73512812 0,6.11015623 C0,7.5877031 0.363276561,8.73641247 1.66640624,10.5883453 C2.96953593,12.4402781 6.11015623,16.6640624 6.11015623,16.6640624" id="path-1"></path>
    </defs>
    <g id="Assets" stroke="none" stroke-width="1" fill="none" fill-rule="evenodd">
        <g id="Assets-Common" transform="translate(-345.000000, -344.000000)">
            <g id="GhostOff" transform="translate(345.000000, 344.000000)">
                <g id="Ghost" transform="translate(4.166667, 1.666667)">
                    <path d="M5.78218224e-07,6.02608391 C0.00833062089,5.32558272 0.134486861,4.65346945 0.359576373,4.02863703 L9.02717065,12.6962313 C8.69687372,13.1486963 8.35657328,13.6126288 8.03021678,14.0563 L7.69384556e-14,6.02608326 Z M0.77660517,9.15971104 L7.02969442,15.4128003 C6.48488706,16.1496082 6.10971595,16.6541715 6.10971595,16.6541715 C6.10971595,16.6541715 2.96909565,12.4303872 1.66596597,10.5784544 C1.29943458,10.0575611 1.00725765,9.5923018 0.77660517,9.15971104 Z M1.17879762,2.49083567 C1.50887664,2.04063043 1.89913289,1.6373196 2.33772707,1.29274252 L10.9839045,9.93891994 C10.8533536,10.1431214 10.7102085,10.3557009 10.5534659,10.5784544 C10.3982444,10.7990462 10.2169522,11.0532905 10.0180023,11.3300403 L1.17879762,2.49083567 Z M3.83102645,0.429019303 C4.4322613,0.187276516 5.08084023,0.0383589153 5.75902976,2.73585841e-13 L12.2124154,6.45338562 C12.1832411,7.11995457 12.0651171,7.73331579 11.7997752,8.39776807 L3.83102645,0.429019303 Z M8.66376896,0.547716598 L11.6622647,3.5462123 C11.0532314,2.2240782 9.98590306,1.15674991 8.66376902,0.547716665 Z" id="Combined-Shape" fill="#0180A8" opacity="0.488790761" style="mix-blend-mode: multiply;"></path>
                    <path d="M9.44374998,16.6640624 C9.44374998,17.1240624 7.95041665,17.4973958 6.11041665,17.4973958 C4.27041665,17.4973958 2.77708332,17.1240624 2.77708332,16.6640624 C2.77708332,16.2040624 4.27041665,15.8307291 6.11041665,15.8307291 C7.95041665,15.8307291 9.44374998,16.2040624 9.44374998,16.6640624" id="Fill-3" fill="#141515"></path>
                    <g id="Shape-Pin"></g>
                    <g id="Stroke-5">
                        <use fill="#87E9FF" fill-rule="evenodd" style="mix-blend-mode: multiply;" xlink:href="#path-1"></use>
                        <use stroke="#757E7F" stroke-width="0.75" xlink:href="#path-1"></use>
                    </g>
                    <path d="M8.60963538,5.83229164 C8.60963538,7.36649632 7.36649632,8.60963538 5.83229164,8.60963538 C4.29808696,8.60963538 3.0549479,7.36649632 3.0549479,5.83229164 C3.0549479,4.29808696 4.29808696,3.0549479 5.83229164,3.0549479 C7.36649632,3.0549479 8.60963538,4.29808696 8.60963538,5.83229164 Z" id="Stroke-1" stroke="#757E7F" stroke-width="0.75" fill="#FFFFFF"></path>
                </g>
                <rect id="Rectangle" fill="#FFFFFF" transform="translate(9.724514, 8.057848) rotate(-315.000000) translate(-9.724514, -8.057848) " x="8.34634288" y="-0.692152181" width="2.7563432" height="17.5"></rect>
                <rect id="Rectangle-Copy" fill="#000000" transform="translate(10.943107, 9.276440) rotate(-315.000000) translate(-10.943107, -9.276440) " x="10.1097733" y="0.526439986" width="1.66666667" height="17.5"></rect>
                <rect id="bounds" stroke="#979797" stroke-width="0.01" x="0.005" y="0.005" width="19.99" height="19.99"></rect>
            </g>
        </g>
    </g>
</svg>