<?xml version="1.0" encoding="UTF-8"?>
<svg width="20px" height="20px" viewBox="0 0 20 20" version="1.1" xmlns="http://www.w3.org/2000/svg" xmlns:xlink="http://www.w3.org/1999/xlink">
    <!-- Generator: Sketch 46.2 (44496) - http://www.bohemiancoding.com/sketch -->
    <title>Ghost@1x</title>
    <desc>Created with Sketch.</desc>
    <defs>
        <path d="M6.11015623,16.6640624 C6.11015623,16.6640624 9.25077653,12.4402781 10.5539062,10.5883453 C11.8570359,8.73641247 12.2203125,7.5877031 12.2203125,6.11015623 C12.2203125,2.73512812 9.48518434,0 6.11015623,0 C2.73512812,0 0,2.73512812 0,6.11015623 C0,7.5877031 0.363276561,8.73641247 1.66640624,10.5883453 C2.96953593,12.4402781 6.11015623,16.6640624 6.11015623,16.6640624" id="path-1"></path>
    </defs>
    <g id="Assets" stroke="none" stroke-width="1" fill="none" fill-rule="evenodd">
        <g id="Assets-Common" transform="translate(-185.000000, -344.000000)">
            <g id="Ghost" transform="translate(185.000000, 344.000000)">
                <path d="M4.16666724,7.69275058 C4.17499729,6.99224938 4.30115353,6.32013611 4.52624304,5.6953037 L13.1938373,14.362898 C12.8635404,14.815363 12.5232399,15.2792954 12.1968834,15.7229667 L4.16666667,7.69274993 Z M4.94327184,10.8263777 L11.1963611,17.079467 C10.6515537,17.8162748 10.2763826,18.3208382 10.2763826,18.3208382 C10.2763826,18.3208382 7.13576232,14.0970538 5.83263263,12.245121 C5.46610124,11.7242277 5.17392432,11.2589685 4.94327184,10.8263777 Z M5.34546428,4.15750234 C5.6755433,3.70729709 6.06579956,3.30398627 6.50439373,2.95940919 L15.1505712,11.6055866 C15.0200202,11.8097881 14.8768752,12.0223675 14.7201326,12.245121 C14.5649111,12.4657129 14.3836188,12.7199571 14.1846689,12.996707 L5.34546428,4.15750234 Z M7.99769312,2.09568597 C8.59892797,1.85394318 9.2475069,1.70502558 9.92569642,1.66666667 L16.379082,8.12005228 C16.3499078,8.78662124 16.2317837,9.39998245 15.9664419,10.0644347 L7.99769312,2.09568597 Z M12.8304356,2.21438327 L15.8289313,5.21287897 C15.219898,3.89074487 14.1525697,2.82341657 12.8304357,2.21438333 Z" id="Combined-Shape" fill="#0180A8" opacity="0.5" style="mix-blend-mode: multiply;"></path>
                <path d="M13.6104167,18.3307291 C13.6104167,18.7907291 12.1170833,19.1640624 10.2770833,19.1640624 C8.43708332,19.1640624 6.94374998,18.7907291 6.94374998,18.3307291 C6.94374998,17.8707291 8.43708332,17.4973958 10.2770833,17.4973958 C12.1170833,17.4973958 13.6104167,17.8707291 13.6104167,18.3307291" id="Fill-3" fill="#141515"></path>
                <g id="Shape-Pin" transform="translate(4.166667, 1.666667)">
                    <g id="Stroke-5">
                        <use fill="#87E9FF" fill-rule="evenodd" style="mix-blend-mode: multiply;" xlink:href="#path-1"></use>
                        <use stroke="#757E7F" stroke-width="0.75" xlink:href="#path-1"></use>
                    </g>
                    <path d="M8.60963538,5.83229164 C8.60963538,7.36649632 7.36649632,8.60963538 5.83229164,8.60963538 C4.29808696,8.60963538 3.0549479,7.36649632 3.0549479,5.83229164 C3.0549479,4.29808696 4.29808696,3.0549479 5.83229164,3.0549479 C7.36649632,3.0549479 8.60963538,4.29808696 8.60963538,5.83229164 Z" id="Stroke-1" stroke="#757E7F" stroke-width="0.75" fill="#FFFFFF"></path>
                </g>
                <rect id="bounds" stroke="#979797" stroke-width="0.01" x="0.005" y="0.005" width="19.99" height="19.99"></rect>
            </g>
        </g>
    </g>
</svg>