<?xml version="1.0" encoding="UTF-8"?>
<svg width="40px" height="40px" viewBox="0 0 40 40" version="1.1" xmlns="http://www.w3.org/2000/svg" xmlns:xlink="http://www.w3.org/1999/xlink">
    <!-- Generator: Sketch 46.2 (44496) - http://www.bohemiancoding.com/sketch -->
    <title>GhostBig@1x</title>
    <desc>Created with Sketch.</desc>
    <defs>
        <path d="M12.2203125,33.3281249 C12.2203125,33.3281249 18.5015531,24.8805562 21.1078124,21.1766905 C23.7140718,17.4728249 24.4406249,15.1754062 24.4406249,12.2203125 C24.4406249,5.47025623 18.9703687,0 12.2203125,0 C5.47025623,0 0,5.47025623 0,12.2203125 C0,15.1754062 0.726553122,17.4728249 3.33281249,21.1766905 C5.93907185,24.8805562 12.2203125,33.3281249 12.2203125,33.3281249" id="path-1"></path>
    </defs>
    <g id="Assets" stroke="none" stroke-width="1" fill="none" fill-rule="evenodd">
        <g id="Assets-Common" transform="translate(-185.000000, -417.000000)">
            <g id="GhostBig" transform="translate(185.000000, 417.000000)">
                <path d="M8.33333449,15.3855012 C8.34999458,13.9844988 8.60230706,12.6402722 9.05248608,11.3906074 L26.3876746,28.725796 C25.7270808,29.630726 25.0464799,30.5585909 24.3937669,31.4459334 L8.33333333,15.3854999 Z M9.88654367,21.6527554 L22.3927222,34.1589339 C21.3031075,35.6325497 20.5527652,36.6416764 20.5527652,36.6416764 C20.5527652,36.6416764 14.2715246,28.1941077 11.6652653,24.490242 C10.9322025,23.4484555 10.3478486,22.5179369 9.88654367,21.6527554 Z M10.6909286,8.31500468 C11.3510866,7.41459419 12.1315991,6.60797253 13.0087875,5.91881837 L30.3011423,23.2111732 C30.0400404,23.6195761 29.7537503,24.0447351 29.4402652,24.490242 C29.1298222,24.9314258 28.7672377,25.4399143 28.3693379,25.993414 L10.6909286,8.31500468 Z M15.9953862,4.19137194 C17.1978559,3.70788637 18.4950138,3.41005116 19.8513928,3.33333333 L32.7581641,16.2401046 C32.6998155,17.5732425 32.4635675,18.7999649 31.9328838,20.1288695 L15.9953862,4.19137194 Z M25.6608712,4.42876653 L31.6578627,10.4257579 C30.439796,7.78148974 28.3051395,5.64683315 25.6608714,4.42876666 Z" id="Combined-Shape" fill="#0180A8" opacity="0.5" style="mix-blend-mode: multiply;"></path>
                <path d="M27.2208333,36.6614582 C27.2208333,37.5814582 24.2341666,38.3281249 20.5541666,38.3281249 C16.8741666,38.3281249 13.8875,37.5814582 13.8875,36.6614582 C13.8875,35.7414582 16.8741666,34.9947915 20.5541666,34.9947915 C24.2341666,34.9947915 27.2208333,35.7414582 27.2208333,36.6614582" id="Fill-3" fill="#141515"></path>
                <g id="Shape-Pin" transform="translate(8.333333, 3.333333)">
                    <g id="Stroke-5">
                        <use fill="#87E9FF" fill-rule="evenodd" style="mix-blend-mode: multiply;" xlink:href="#path-1"></use>
                        <use stroke="#757E7F" stroke-width="0.75" xlink:href="#path-1"></use>
                    </g>
                    <path d="M17.2192708,11.6645833 C17.2192708,14.7329926 14.7329926,17.2192708 11.6645833,17.2192708 C8.59617392,17.2192708 6.10989581,14.7329926 6.10989581,11.6645833 C6.10989581,8.59617392 8.59617392,6.10989581 11.6645833,6.10989581 C14.7329926,6.10989581 17.2192708,8.59617392 17.2192708,11.6645833 Z" id="Stroke-1" stroke="#757E7F" stroke-width="0.75" fill="#FFFFFF"></path>
                </g>
                <rect id="bounds" stroke="#979797" stroke-width="0.01" x="0.005" y="0.005" width="39.99" height="39.99"></rect>
            </g>
        </g>
    </g>
</svg>