<?xml version="1.0" encoding="UTF-8"?>
<svg width="30px" height="30px" viewBox="0 0 30 30" version="1.1" xmlns="http://www.w3.org/2000/svg" xmlns:xlink="http://www.w3.org/1999/xlink">
    <!-- Generator: Sketch 46.2 (44496) - http://www.bohemiancoding.com/sketch -->
    <title>GoogleWhite@1x</title>
    <desc>Created with Sketch.</desc>
    <defs></defs>
    <g id="Assets" stroke="none" stroke-width="1" fill="none" fill-rule="evenodd">
        <g id="Assets-Common" transform="translate(-883.000000, -259.000000)">
            <g id="GoogleWhite" transform="translate(883.000000, 259.000000)">
                <rect id="bounds" stroke="#979797" stroke-width="0.01" x="0.005" y="0.005" width="29.99" height="29.99"></rect>
                <path d="M3.03137319,13.866471 C3.13304171,7.97377492 8.72521208,2.81294569 14.8080436,3.00953759 C17.7222732,2.87873585 20.4620991,4.10733788 22.6943862,5.83306436 C21.7419973,6.88142471 20.755451,7.89202384 19.7009917,8.83683281 C17.0178269,7.0398661 13.201038,6.52678071 10.5178732,8.60209041 C6.67858059,11.1741353 6.50417689,17.247073 10.1963917,20.0157098 C13.7873399,23.1724696 20.5750195,21.6047952 21.5671917,16.7717489 C19.317625,16.7390484 17.0628343,16.7717489 14.8136695,16.7008979 C14.8080436,15.4010557 14.8024176,14.1012134 14.8080436,12.8013712 C18.5681713,12.790471 22.3282991,12.7850209 26.0940528,12.8122713 C26.3194917,15.8705405 25.9023695,19.1254016 23.9630324,21.6542351 C21.0258973,25.6573133 15.1291232,26.8259645 10.529125,25.1111382 C5.91224911,23.407212 2.64238059,18.6831671 3.03137319,13.866471" id="Fill-186" fill="#FFFFFF"></path>
            </g>
        </g>
    </g>
</svg>