<?xml version="1.0" encoding="UTF-8"?>
<svg width="44px" height="44px" viewBox="0 0 44 44" version="1.1" xmlns="http://www.w3.org/2000/svg" xmlns:xlink="http://www.w3.org/1999/xlink">
    <!-- Generator: Sketch 46.2 (44496) - http://www.bohemiancoding.com/sketch -->
    <title>LogoDark</title>
    <desc>Created with Sketch.</desc>
    <defs>
        <polygon id="path-1" points="0 18.8376667 14.9976667 18.8376667 14.9976667 0 0 0"></polygon>
    </defs>
    <g id="Assets" stroke="none" stroke-width="1" fill="none" fill-rule="evenodd">
        <g id="Assets-Common" transform="translate(-108.000000, -76.000000)">
            <g id="LogoDark" transform="translate(108.000000, 76.000000)">
                <rect id="Rectangle" stroke="#979797" stroke-width="0.01" x="0.005" y="0.005" width="43.99" height="43.99"></rect>
                <circle id="Oval" fill="#000000" cx="22" cy="22" r="20"></circle>
                <g id="Blue-Signet" transform="translate(14.000000, 12.000000)">
                    <g id="Group" transform="translate(0.666667, 0.666667)">
                        <mask id="mask-2" fill="white">
                            <use xlink:href="#path-1"></use>
                        </mask>
                        <g id="Clip-2"></g>
                        <path d="M12.902,2.48 C13.42,3.134 13.4316667,3.81433333 13.391,4.179 C13.3143333,5.024 12.7703333,5.54933333 12.7706667,5.54933333 L10.0243333,8.29466667 L9.02933333,7.29966667 L9.029,7.3 L7.75766667,6.02866667 L7.756,6.03066667 L6.795,5.06966667 L6.777,5.052 C6.37966667,4.67933333 5.78133333,4.60633333 5.339,4.86533333 C4.94233333,5.08466667 4.696,5.49633333 4.696,5.93933333 L4.696,8.15033333 L4.696,10.2496667 L4.69333333,10.2523333 L4.69333333,12.9 C4.69333333,13.3433333 4.93966667,13.7553333 5.31966667,13.9653333 C5.50533333,14.0743333 5.71366667,14.1276667 5.92266667,14.1276667 C6.23066667,14.1276667 6.54,14.0116667 6.77733333,13.7883333 L9.02933333,11.537 L9.02933333,11.537 L9.02933333,11.5373333 L10.024,10.5423333 L12.7426667,13.2613333 L12.7706667,13.2876667 C12.776,13.293 13.3146667,13.8166667 13.3926667,14.675 C13.4316667,15.0226667 13.42,15.703 12.902,16.3573333 C12.207,17.235 11.2406667,17.2473333 11.184,17.2473333 L11.1823333,17.2473333 L1.58966667,17.247 L1.58966667,1.59 L11.1733333,1.59 C11.2126667,1.58833333 12.197,1.59 12.902,2.48 L12.902,2.48 Z M8.58133333,9.09966667 L8.9,9.41866667 L8.581,9.73766667 L8.581,9.73733333 L6.283,12.0356667 L6.283,10.445 L6.28533333,10.448 L6.28533333,8.88566667 L6.28533333,8.15033333 L6.28533333,6.80833333 L7.529,8.05166667 L7.531,8.04966667 L8.581,9.1 L8.58133333,9.09966667 Z M11.154,0.000666666667 L1.58933333,0.000333333333 L1.58966667,0 L0,0 L0,18.8376667 L1.58966667,18.8376667 L1.58933333,18.8366667 L11.154,18.8366667 L11.1666667,18.8366667 C11.4293333,18.8366667 13.015,18.775 14.148,17.344 C14.7943333,16.5283333 15.087,15.5173333 14.974,14.5146667 C14.848,13.1233333 14.0183333,12.2793333 13.857,12.1273333 L11.148,9.41833333 L13.857,6.70966667 C14.0183333,6.558 14.848,5.71466667 14.9723333,4.33933333 C15.087,3.31966667 14.794,2.30866667 14.148,1.49333333 C12.9943333,0.0363333333 11.365,0.004 11.154,0.000666666667 L11.154,0.000666666667 Z" id="Fill-1" fill="#0AD1F2" mask="url(#mask-2)"></path>
                    </g>
                </g>
            </g>
        </g>
    </g>
</svg>