<?xml version="1.0" encoding="UTF-8"?>
<svg width="30px" height="30px" viewBox="0 0 30 30" version="1.1" xmlns="http://www.w3.org/2000/svg" xmlns:xlink="http://www.w3.org/1999/xlink">
    <!-- Generator: Sketch 46.2 (44496) - http://www.bohemiancoding.com/sketch -->
    <title>Notifications@1x</title>
    <desc>Created with Sketch.</desc>
    <defs></defs>
    <g id="Assets" stroke="none" stroke-width="1" fill="none" fill-rule="evenodd">
        <g id="Assets-Common" transform="translate(-358.000000, -88.000000)">
            <g id="Notifications" transform="translate(355.000000, 85.000000)">
                <circle id="Oval" fill="#4E5454" cx="18" cy="18" r="15"></circle>
                <g id="noun_1075242" transform="translate(10.500000, 9.000000)" fill-rule="nonzero" fill="#F7FBFC">
                    <path d="M7.99230786,16.8524864 C9.33362929,16.8524864 10.4994507,15.9460579 10.8292364,14.647165 C10.8842007,14.431165 10.7530579,14.2113079 10.5370579,14.1553793 C10.3210579,14.100415 10.1002364,14.2315579 10.0452721,14.4475579 C9.80709358,15.3867721 8.96237929,16.0424864 7.99230786,16.0424864 C7.02223644,16.0424864 6.17752215,15.3867721 5.93934358,14.4475579 C5.88437929,14.2315579 5.66452215,14.100415 5.44755786,14.1553793 C5.23155786,14.2103436 5.10041501,14.4302007 5.15537929,14.647165 C5.48516501,15.9460579 6.65195072,16.8524864 7.99230786,16.8524864 Z" id="Shape"></path>
                    <path d="M7.71428571,0.440678571 C5.10203571,0.440678571 2.97771429,2.56596429 2.97771429,5.17725 L2.97771429,10.1143929 L0.756964286,13.34475 C0.672107143,13.4681786 0.662464286,13.6292143 0.731892857,13.7622857 C0.801321429,13.8953571 0.939214286,13.9782857 1.08964286,13.9782857 L14.3389286,13.9782857 C14.4893571,13.9782857 14.62725,13.8953571 14.6966786,13.7622857 C14.7661071,13.6292143 14.7574286,13.4691429 14.6716071,13.34475 L12.4508571,10.1143929 L12.4508571,5.17725 C12.4508571,2.565 10.3265357,0.440678571 7.71428571,0.440678571 Z M13.5703929,13.1702143 L1.85817857,13.1702143 L3.71539286,10.46925 C3.76167857,10.40175 3.78675,10.3217143 3.78675,10.2407143 L3.78675,5.17821429 C3.78675,3.01242857 5.54946429,1.24971429 7.71525,1.24971429 C9.88103571,1.24971429 11.64375,3.01242857 11.64375,5.17821429 L11.64375,10.2407143 C11.64375,10.3226786 11.6688214,10.4027143 11.7151071,10.46925 L13.5703929,13.1702143 Z" id="Shape" stroke="#F7FBFC" stroke-width="0.5"></path>
                </g>
            </g>
        </g>
    </g>
</svg>