<?xml version="1.0" encoding="UTF-8"?>
<svg width="20px" height="20px" viewBox="0 0 20 20" version="1.1" xmlns="http://www.w3.org/2000/svg" xmlns:xlink="http://www.w3.org/1999/xlink">
    <!-- Generator: Sketch 46.2 (44496) - http://www.bohemiancoding.com/sketch -->
    <title>Pickup@1x</title>
    <desc>Created with Sketch.</desc>
    <defs></defs>
    <g id="Assets" stroke="none" stroke-width="1" fill="none" fill-rule="evenodd">
        <g id="Assets-Common" transform="translate(-39.000000, -344.000000)">
            <g id="Pickup" transform="translate(39.000000, 344.000000)">
                <g id="Shape-Pin" transform="translate(3.333333, 0.833333)">
                    <path d="M8.88749997,17.2195312 C8.88749997,17.5261499 7.89209997,17.7749999 6.66562498,17.7749999 C5.43914998,17.7749999 4.44374998,17.5261499 4.44374998,17.2195312 C4.44374998,16.9129124 5.43914998,16.6640624 6.66562498,16.6640624 C7.89209997,16.6640624 8.88749997,16.9129124 8.88749997,17.2195312" id="Fill-3" fill="#141515"></path>
                    <path d="M6.66562498,17.2195312 C6.66562498,17.2195312 9.80624528,12.9957468 11.109375,11.143814 C12.4125046,9.29188122 12.7757812,8.14317185 12.7757812,6.66562498 C12.7757812,3.29059686 10.0406531,0.555468748 6.66562498,0.555468748 C3.29059686,0.555468748 0.555468748,3.29059686 0.555468748,6.66562498 C0.555468748,8.14317185 0.918745309,9.29188122 2.22187499,11.143814 C3.52500467,12.9957468 6.66562498,17.2195312 6.66562498,17.2195312" id="Stroke-5" stroke="#141515" stroke-width="0.75" fill="#0AD1F2"></path>
                    <path d="M9.44296872,6.66562498 C9.44296872,8.19982966 8.19982966,9.44296872 6.66562498,9.44296872 C5.13142029,9.44296872 3.88828124,8.19982966 3.88828124,6.66562498 C3.88828124,5.13142029 5.13142029,3.88828124 6.66562498,3.88828124 C8.19982966,3.88828124 9.44296872,5.13142029 9.44296872,6.66562498 Z" id="Stroke-1" stroke="#303232" stroke-width="0.75" fill="#FFFFFF"></path>
                </g>
                <rect id="bounds" stroke="#979797" stroke-width="0.01" x="0.005" y="0.005" width="19.99" height="19.99"></rect>
            </g>
        </g>
    </g>
</svg>