<?xml version="1.0" encoding="UTF-8"?>
<svg width="40px" height="40px" viewBox="0 0 40 40" version="1.1" xmlns="http://www.w3.org/2000/svg" xmlns:xlink="http://www.w3.org/1999/xlink">
    <!-- Generator: Sketch 46.2 (44496) - http://www.bohemiancoding.com/sketch -->
    <title>Pickup-Big@1x</title>
    <desc>Created with Sketch.</desc>
    <defs></defs>
    <g id="Assets" stroke="none" stroke-width="1" fill="none" fill-rule="evenodd">
        <g id="Assets-Common" transform="translate(-39.000000, -357.000000)">
            <g id="Pickup-Big" transform="translate(39.000000, 357.000000)">
                <g id="Shape-Pin" transform="translate(6.666667, 1.666667)">
                    <path d="M17.7749999,34.4390624 C17.7749999,35.0522999 15.7841999,35.5499999 13.33125,35.5499999 C10.8783,35.5499999 8.88749997,35.0522999 8.88749997,34.4390624 C8.88749997,33.8258249 10.8783,33.3281249 13.33125,33.3281249 C15.7841999,33.3281249 17.7749999,33.8258249 17.7749999,34.4390624" id="Fill-3" fill="#141515"></path>
                    <path d="M13.33125,34.4390624 C13.33125,34.4390624 19.6124906,25.9914937 22.2187499,22.287628 C24.8250093,18.5837624 25.5515624,16.2863437 25.5515624,13.33125 C25.5515624,6.58119373 20.0813062,1.1109375 13.33125,1.1109375 C6.58119373,1.1109375 1.1109375,6.58119373 1.1109375,13.33125 C1.1109375,16.2863437 1.83749062,18.5837624 4.44374998,22.287628 C7.05000935,25.9914937 13.33125,34.4390624 13.33125,34.4390624" id="Stroke-5" stroke="#141515" stroke-width="0.75" fill="#0AD1F2"></path>
                    <path d="M18.8859374,13.33125 C18.8859374,16.3996593 16.3996593,18.8859374 13.33125,18.8859374 C10.2628406,18.8859374 7.77656247,16.3996593 7.77656247,13.33125 C7.77656247,10.2628406 10.2628406,7.77656247 13.33125,7.77656247 C16.3996593,7.77656247 18.8859374,10.2628406 18.8859374,13.33125 Z" id="Stroke-1" stroke="#303232" stroke-width="0.75" fill="#FFFFFF"></path>
                </g>
                <rect id="bounds" stroke="#979797" stroke-width="0.01" x="0.005" y="0.005" width="39.99" height="39.99"></rect>
            </g>
        </g>
    </g>
</svg>