<?xml version="1.0" encoding="UTF-8"?>
<svg width="20px" height="20px" viewBox="0 0 20 20" version="1.1" xmlns="http://www.w3.org/2000/svg" xmlns:xlink="http://www.w3.org/1999/xlink">
    <!-- Generator: Sketch 46.2 (44496) - http://www.bohemiancoding.com/sketch -->
    <title>Stop@1x</title>
    <desc>Created with Sketch.</desc>
    <defs></defs>
    <g id="Assets" stroke="none" stroke-width="1" fill="none" fill-rule="evenodd">
        <g id="Assets-Common" transform="translate(-255.000000, -344.000000)">
            <g id="Stop" transform="translate(255.000000, 344.000000)">
                <g id="Shadow" transform="translate(5.000000, 15.000000)" fill="#C9D2D6">
                    <path d="M10,2.38090987 C10,3.69530543 7.76174832,4.76181974 5.00071418,4.76181974 C2.23825168,4.76181974 0,3.69530543 0,2.38090987 C0,1.06547279 2.23825168,0 5.00071418,0 C7.76174832,0 10,1.06547279 10,2.38090987" id="Fill-1"></path>
                </g>
                <path d="M7.07310953,16.9714988 L10,19.1666667 L12.9268905,16.9714988 C16.0854085,15.7864734 18.3333333,12.7390855 18.3333333,9.16666667 C18.3333333,4.56429375 14.6023729,0.833333333 10,0.833333333 C5.39762709,0.833333333 1.66666667,4.56429375 1.66666667,9.16666667 C1.66666667,12.7390855 3.91459146,15.7864734 7.07310953,16.9714988 Z" id="Combined-Shape" fill="#141515"></path>
                <rect id="Rectangle" fill="#D8D8D8" x="5" y="4.16666667" width="3.33333333" height="3.33333333"></rect>
                <circle id="Oval-2" fill="#FAB4C2" cx="10" cy="9.16666667" r="7.5"></circle>
                <rect id="bounds" stroke="#979797" stroke-width="0.01" x="0.005" y="0.005" width="19.99" height="19.99"></rect>
            </g>
        </g>
    </g>
</svg>